<mxfile host="app.diagrams.net" modified="2021-12-03T07:54:44.524Z" agent="5.0 (Macintosh; Intel Mac OS X 10_15_7) AppleWebKit/537.36 (KHTML, like Gecko) Chrome/96.0.4664.55 Safari/537.36" etag="q7XS0DpsTV0f2iFvwaqa" version="15.4.3" type="github">
  <diagram id="mMxph0oxpzVzIzYgks9X" name="Page-1">
    <mxGraphModel dx="541" dy="1520" grid="1" gridSize="10" guides="1" tooltips="1" connect="1" arrows="1" fold="1" page="1" pageScale="1" pageWidth="827" pageHeight="1169" math="0" shadow="0">
      <root>
        <mxCell id="0" />
        <mxCell id="1" parent="0" />
        <mxCell id="yHFZUkc1ypUGbv7L5V7n-5" style="rounded=0;orthogonalLoop=1;jettySize=auto;html=1;exitX=1;exitY=0.3333333333333333;exitDx=0;exitDy=0;exitPerimeter=0;entryX=0.063;entryY=0.734;entryDx=0;entryDy=0;endArrow=none;endFill=0;entryPerimeter=0;" edge="1" parent="1" source="yHFZUkc1ypUGbv7L5V7n-1" target="yHFZUkc1ypUGbv7L5V7n-2">
          <mxGeometry relative="1" as="geometry" />
        </mxCell>
        <mxCell id="yHFZUkc1ypUGbv7L5V7n-1" value="Schalter-Mitarbeiter" style="shape=umlActor;verticalLabelPosition=bottom;verticalAlign=top;html=1;outlineConnect=0;" vertex="1" parent="1">
          <mxGeometry x="210" y="160" width="30" height="60" as="geometry" />
        </mxCell>
        <mxCell id="yHFZUkc1ypUGbv7L5V7n-2" value="Kontoverwaltung" style="ellipse;whiteSpace=wrap;html=1;" vertex="1" parent="1">
          <mxGeometry x="320" y="60" width="120" height="80" as="geometry" />
        </mxCell>
        <mxCell id="yHFZUkc1ypUGbv7L5V7n-7" value="Kundendaten erfassen" style="ellipse;whiteSpace=wrap;html=1;" vertex="1" parent="1">
          <mxGeometry x="390" y="-40" width="120" height="80" as="geometry" />
        </mxCell>
        <mxCell id="yHFZUkc1ypUGbv7L5V7n-8" value="Kreditlinie festlegen" style="ellipse;whiteSpace=wrap;html=1;" vertex="1" parent="1">
          <mxGeometry x="490" y="50" width="120" height="80" as="geometry" />
        </mxCell>
        <mxCell id="yHFZUkc1ypUGbv7L5V7n-9" value="Kontodaten Beleg ausdrucken" style="ellipse;whiteSpace=wrap;html=1;" vertex="1" parent="1">
          <mxGeometry x="450" y="150" width="120" height="80" as="geometry" />
        </mxCell>
      </root>
    </mxGraphModel>
  </diagram>
</mxfile>
